<?xml version="1.0" encoding="utf-8"?>
<!-- Generator: Adobe Illustrator 18.1.1, SVG Export Plug-In . SVG Version: 6.00 Build 0)  -->
<svg version="1.1" id="Creates_Brand_Awareness" xmlns="http://www.w3.org/2000/svg" xmlns:xlink="http://www.w3.org/1999/xlink"
	 x="0px" y="0px" viewBox="-230 322 150 150" enable-background="new -230 322 150 150" xml:space="preserve">
<title>Creates Brand Awareness</title>
<path fill="#E20031" d="M-107.6,369.8V349c0-2.3-1.9-4.2-4.2-4.2h-4.7c-1.9,0-3.6,1.3-4.1,3.2l-19,12.7c-6.2,4.2-13.6,6.4-21.1,6.4
	h-37.4c-9.1,0-16.5,7.4-16.6,16.6v8.3c0,7.5,5.1,14.1,12.4,16v3.7c0,1,0.8,1.8,1.8,1.8c1,0,1.8-0.8,1.8-1.8v-3.1c0.2,0,0.4,0,0.7,0
	h15.6l-6.5,8.8c-0.6,0.8-1,1.9-1,2.9v18c0,0.7-0.6,1.3-1.3,1.3h-6.1c-0.7,0-1.3-0.6-1.3-1.3v-19.1c0-1-0.8-1.8-1.8-1.8
	c-1,0-1.8,0.8-1.8,1.8l0,0v19.1c0,2.7,2.2,4.9,4.9,4.9h6.1c2.7,0,4.9-2.2,4.9-4.9v-18c0-0.3,0.1-0.6,0.3-0.8l8.1-10.9h2.6
	c1,0,1.8-0.8,1.8-1.8c0-1-0.8-1.8-1.8-1.8h-8.6v-34.4h23.4c8.2,0,16.2-2.4,23-7l16.9-11.3v71.1l-7.4-4.9c-0.8-0.5-1.9-0.3-2.4,0.5
	c-0.5,0.8-0.3,1.9,0.5,2.4l0,0l9.5,6.3c0.5,1.9,2.1,3.2,4.1,3.2h4.7c2.3,0,4.2-1.9,4.2-4.2v-20.8c7.7-0.9,13.5-7.4,13.5-15.2V385
	C-94.2,377.2-100,370.7-107.6,369.8L-107.6,369.8z M-211.1,392v-8.3c0-7.2,5.8-13,13-13h2.4V405h-2.4
	C-205.3,405-211.1,399.2-211.1,392L-211.1,392z M-187.6,405h-4.5v-34.4h4.5V405z M-97.7,390.8c0,5.8-4.2,10.7-10,11.6v-16.3
	c0-1-0.8-1.8-1.8-1.8c-1,0-1.8,0.8-1.8,1.8v40.6c0,0.4-0.3,0.7-0.7,0.7h-4.7c-0.4,0-0.7-0.3-0.7-0.7V349c0-0.4,0.3-0.7,0.7-0.7h4.7
	c0.4,0,0.7,0.3,0.7,0.7v29.6c0,1,0.8,1.8,1.8,1.8c1,0,1.8-0.8,1.8-1.8v-5.2c5.7,0.9,10,5.8,10,11.6V390.8z"/>
<path fill="#E20031" d="M-127.6,402.2c0-11.9-9.6-21.5-21.5-21.5s-21.5,9.6-21.5,21.5c0,6.7,3.1,13,8.4,17v19.7
	c0,1.8,1.5,3.3,3.3,3.3c0.3,0,0.6,0,0.9-0.1l8.9-2.6l8.9,2.6c0.3,0.1,0.6,0.1,0.9,0.1c1.8,0,3.3-1.5,3.3-3.3v-6.1
	c0-1-0.8-1.8-1.8-1.8s-1.8,0.8-1.8,1.8v5.7l-8.6-2.6c-0.6-0.2-1.3-0.2-1.9,0l-8.6,2.6v-17.2c6,3,13.1,3,19.1,0v3.9
	c0,1,0.8,1.8,1.8,1.8c1,0,1.8-0.8,1.8-1.8l0,0v-6.1C-130.7,415.2-127.6,408.9-127.6,402.2L-127.6,402.2z M-167.1,402.2
	c0-9.9,8-18,18-18s18,8,18,18c0,9.9-8,18-18,18l0,0C-159,420.2-167.1,412.1-167.1,402.2z"/>
<path fill="#E20031" d="M-140.2,395.4h-4.8l-1.5-3.3c-0.7-1.5-2.4-2.1-3.8-1.5c-0.7,0.3-1.2,0.8-1.5,1.5l-1.5,3.3h-4.8
	c-1.6,0-2.9,1.3-2.9,2.9c0,0.7,0.2,1.3,0.7,1.9l3.4,4.2l-1.7,5.3c-0.5,1.5,0.3,3.2,1.9,3.7c0.3,0.1,0.6,0.1,0.9,0.1
	c0.6,0,1.2-0.2,1.6-0.5l5-3.4l5,3.4c1.3,0.9,3.1,0.6,4-0.8c0.5-0.7,0.6-1.7,0.4-2.5l-1.7-5.3l3.4-4.2c1-1.2,0.8-3.1-0.4-4.1
	C-138.9,395.7-139.5,395.4-140.2,395.4L-140.2,395.4z M-144.4,402.4c-0.6,0.8-0.8,1.8-0.5,2.8l1.3,3.9l-3.9-2.6l0,0
	c-1-0.7-2.3-0.7-3.3,0l-3.9,2.6l1.3-3.9c0.3-0.9,0.1-2-0.5-2.8l-2.8-3.4h3.9c1.1,0,2.2-0.7,2.7-1.7l1.1-2.4l1.1,2.4
	c0.5,1,1.5,1.7,2.7,1.7h3.9L-144.4,402.4z"/>
</svg>
