<?xml version="1.0" encoding="utf-8"?>
<!-- Generator: Adobe Illustrator 23.0.1, SVG Export Plug-In . SVG Version: 6.00 Build 0)  -->
<svg version="1.1" xmlns="http://www.w3.org/2000/svg" xmlns:xlink="http://www.w3.org/1999/xlink" x="0px" y="0px"
	 viewBox="0 0 100 100" style="enable-background:new 0 0 100 100;" xml:space="preserve">
<style type="text/css">
	.st0{display:none;}
	.st1{display:inline;}
	.st2{clip-path:url(#SVGID_2_);}
	.st3{fill:#ED1F24;}
	.st4{clip-path:url(#SVGID_4_);}
	.st5{fill:#1B75BC;}
</style>
<g id="Layer_1" class="st0">
	<g class="st1">
		<defs>
			<rect id="SVGID_1_" width="100" height="100"/>
		</defs>
		<clipPath id="SVGID_2_">
			<use xlink:href="#SVGID_1_"  style="overflow:visible;"/>
		</clipPath>
		<g class="st2">
			<path class="st3" d="M100,14.5c-0.5,0.6-1.1,0.8-1.9,0.8c-1.4-0.1-2.7,0-4.1,0c-1,0-1.5-0.5-1.5-1.4c0-0.8,0.5-1.3,1.5-1.3
				c1.4,0,2.7,0,4.1,0c0.8,0,1.4,0.2,1.9,0.8C100,13.7,100,14.1,100,14.5z"/>
			<path class="st3" d="M0,17.8c0.5-0.6,1.1-0.8,1.9-0.8c1.4,0.1,2.7,0,4.1,0c0.9,0,1.5,0.5,1.5,1.3c0,0.9-0.5,1.4-1.5,1.4
				c-1.3,0-2.7,0-4,0c-0.8,0-1.4-0.2-2-0.8C0,18.6,0,18.2,0,17.8z"/>
			<path class="st3" d="M42.6,80.2c0,3.2,0.3,6.4,0,9.7c-0.1,0.8-0.2,1.6-0.6,2.3c-1.9,3.3-4.6,3.8-7.5,1.4
				c-2.3-1.9-3.9-4.4-5.3-6.9c-3.3-5.7-5.7-11.7-6.4-18.3c-0.5-3.9-0.2-7.8,0.2-11.7c0.2-1.5,0.3-3,0.5-4.5c0.3-2.5-0.6-4.7-1.9-6.8
				c-1.9-2.9-3.6-6.1-4-9.6c-0.6-4.6-0.7-9.1,1.3-13.5c1.9-4.3,8.5-9.2,14.2-8.4c2,0.3,3.9,0.8,5.7,1.5c2.6,0.9,5.2,2,8,2.5
				c2.4,0.4,4.7,0.3,7-0.4c2.6-0.7,5-2,7.6-2.7c4.1-1.2,8.1-1.4,12,0.6c4.6,2.3,6.8,6.4,7.7,11.2c1.4,7.3-0.4,14.1-4.4,20.2
				c-1.3,2-1.5,4-1.2,6.2c1.6,10.8,0.3,21.1-4.2,31c-1.4,3.2-3.2,6.1-5.7,8.5c-0.8,0.8-1.7,1.4-2.7,1.9c-2.5,1.1-4.7,0.4-6-2.1
				c-0.7-1.2-0.9-2.6-1-3.9c-0.1-2,0.1-3.9,0.2-5.8c0.3-5,0.1-9.9-1.2-14.7c-0.5-1.6-1.1-3.1-2.3-4.4c-1.6-1.8-3.5-2-5.5-0.6
				c-2.3,1.6-3.3,4-4,6.6c-0.5,1.9-0.5,3.9-0.6,5.8C42.6,76.9,42.6,78.6,42.6,80.2z M39.8,80.8c0.1-3.5-0.3-7.3,0.4-11
				c0.7-3.4,2-6.5,4.7-8.8c3.2-2.7,7-2.4,9.7,0.9c1.3,1.6,2.2,3.4,2.9,5.4c1.1,3.6,1.4,7.3,1.4,11c0,3.6-0.6,7.2-0.2,10.8
				c0.1,1.2,0.2,2.4,1.4,2.9c1.2,0.5,2.1-0.3,3-1c1.7-1.4,3-3.2,4.1-5.2c2.3-4,3.7-8.2,4.7-12.6c1.1-4.8,1.8-9.7,1.3-14.7
				c-0.2-2.8-0.7-5.5-0.8-8.2c-0.1-1.4,0.2-2.7,1.1-3.7c1.8-2,2.7-4.5,3.6-7c1.6-4.3,2.1-8.8,0.9-13.3c-1.8-6.7-6.3-10.5-13.8-9.2
				c-2.6,0.5-5.1,1.5-7.6,2.5c-4,1.6-8,1.9-12.1,0.8c-2.6-0.7-5-1.7-7.5-2.6c-1.9-0.7-3.8-1.4-5.9-1.1c-4.9,0.7-8.4,3.4-10.2,8
				c-1.4,3.5-1.2,7.1-0.7,10.8c0.4,3.2,1.9,6,3.7,8.7c1.6,2.5,2.8,5,2.5,8c-0.2,1.8-0.4,3.6-0.6,5.3c-0.6,4.5-0.6,8.9,0.2,13.4
				c1.1,6,3.6,11.4,7,16.5c0.5,0.8,1.1,1.6,1.7,2.4c0.7,0.9,1.5,1.8,2.6,2.4c0.7,0.4,1.2,0.3,1.8-0.2c0.8-0.7,0.9-1.6,0.9-2.6
				C40,86.6,39.9,83.8,39.8,80.8z"/>
			<path class="st3" d="M92.8,9c0,0.8,0,1.6,0,2.3c0,0.8-0.5,1.3-1.3,1.4c-0.8,0-1.4-0.5-1.4-1.4c0-1.6,0-3.1,0-4.7
				c0-0.8,0.6-1.3,1.4-1.3c0.8,0,1.3,0.5,1.3,1.3C92.8,7.4,92.8,8.2,92.8,9z"/>
			<path class="st3" d="M10,13.4c0,0.8,0,1.6,0,2.3c0,0.9-0.6,1.4-1.4,1.4c-0.9,0-1.3-0.5-1.3-1.4c0-1.6,0-3.1,0-4.7
				c0-0.8,0.6-1.3,1.3-1.3c0.8,0,1.3,0.5,1.4,1.3C10,11.9,10,12.7,10,13.4z"/>
			<path class="st3" d="M86.5,15.2c-0.8,0-1.6,0-2.3,0c-0.8,0-1.4-0.6-1.4-1.3c0-0.8,0.5-1.4,1.3-1.4c1.6,0,3.2,0,4.8,0
				c0.8,0,1.3,0.6,1.3,1.4c0,0.9-0.5,1.3-1.4,1.3C88.1,15.2,87.3,15.2,86.5,15.2z"/>
			<path class="st3" d="M90,18.7c0-0.7,0-1.4,0-2.1c0-0.9,0.5-1.5,1.3-1.5c0.8,0,1.4,0.5,1.4,1.4c0,1.5,0,3.1,0,4.6
				c0,0.9-0.5,1.4-1.4,1.4c-0.8,0-1.3-0.5-1.3-1.5C90,20.2,90,19.4,90,18.7z"/>
			<path class="st3" d="M13.4,19.7c-0.7,0-1.5,0-2.2,0c-0.9,0-1.4-0.6-1.4-1.4c0-0.9,0.5-1.3,1.4-1.3c1.6,0,3.1,0,4.7,0
				c0.8,0,1.3,0.6,1.4,1.3c0,0.8-0.5,1.4-1.4,1.4C15,19.7,14.2,19.7,13.4,19.7z"/>
			<path class="st3" d="M10,23.2c0,0.8,0,1.6,0,2.3c0,0.8-0.5,1.3-1.3,1.4c-0.8,0-1.4-0.5-1.4-1.4c0-1.6,0-3.1,0-4.7
				c0-0.8,0.6-1.3,1.4-1.3c0.8,0,1.3,0.5,1.4,1.3c0,0,0,0.1,0,0.1C10,21.7,10,22.5,10,23.2z"/>
			<path class="st3" d="M11.5,43.5c0,0.8,0,1.6,0,2.3c0,0.9-0.6,1.4-1.4,1.4c-0.9,0-1.3-0.5-1.3-1.4c0-1.6,0-3.1,0-4.7
				c0-0.8,0.6-1.3,1.4-1.3c0.8,0,1.3,0.5,1.4,1.3C11.5,42,11.5,42.7,11.5,43.5z"/>
			<path class="st3" d="M5.3,47.1c0.7,0,1.5,0,2.2,0c0.9,0,1.4,0.6,1.4,1.4c0,0.8-0.5,1.3-1.4,1.3c-1.6,0-3.1,0-4.7,0
				c-0.8,0-1.3-0.5-1.4-1.3c0-0.8,0.5-1.4,1.4-1.4C3.8,47.1,4.5,47.1,5.3,47.1z"/>
			<path class="st3" d="M15.1,49.8c-0.8,0-1.6,0-2.3,0c-0.8,0-1.3-0.5-1.4-1.3c0-0.8,0.5-1.4,1.4-1.4c1.6,0,3.1,0,4.7,0
				c0.8,0,1.3,0.6,1.3,1.4c0,0.8-0.5,1.3-1.3,1.4c0,0-0.1,0-0.1,0C16.6,49.8,15.8,49.8,15.1,49.8z"/>
			<path class="st3" d="M11.5,53.3c0,0.8,0,1.6,0,2.3c0,0.9-0.6,1.4-1.4,1.4c-0.9,0-1.3-0.5-1.3-1.4c0-1.6,0-3.1,0-4.7
				c0-0.8,0.6-1.3,1.3-1.3c0.8,0,1.3,0.5,1.4,1.3C11.5,51.7,11.5,52.5,11.5,53.3z"/>
			<path class="st3" d="M24.6,30.6c-0.1-1,0.1-2.2,0.3-3.3c0.6-3.4,4.9-7.2,9.5-5.7c2.1,0.7,4.2,1.6,6.3,2.3c6,2,11.9,2.2,17.9-0.2
				c2.5-1,5-2,7.7-2.3c3-0.3,5.3,0.8,6.7,3.6c1.1,2.3,1.3,4.8,1.1,7.3c-0.3,3.8-1.5,7.3-3.7,10.4c-0.5,0.8-0.9,1.6-1.4,2.5
				c-0.5,1-1.3,1.3-2.2,0.8c-0.8-0.4-0.9-0.9-0.4-2c0.9-2,2.4-3.8,3.3-5.8c1.6-3.5,2-7.1,1.1-10.8c-0.6-2.7-2.1-3.5-4.9-3.1
				c-2.4,0.3-4.6,1.3-6.8,2.1c-6.2,2.5-12.4,2.3-18.7,0.4c-2.3-0.7-4.5-1.6-6.7-2.4c-3-1.1-5.9,0.7-6.3,3.9
				c-0.6,4.3,0.4,8.3,2.8,11.8c0.6,0.9,1.1,1.9,1.6,2.9c0.3,0.7,0.1,1.3-0.5,1.7c-0.7,0.3-1.3,0.3-1.7-0.4c-1.6-2.9-3.7-5.5-4.5-8.8
				C24.8,34,24.6,32.3,24.6,30.6z"/>
			<path class="st3" d="M59,46.2c0,0.7,0,1.5,0,2.2c0,1-0.5,1.5-1.4,1.5c-0.8,0-1.3-0.5-1.3-1.5c0-1.6,0-3.1,0-4.7
				c0-0.9,0.5-1.5,1.3-1.5c0.9,0,1.4,0.5,1.4,1.5C59,44.7,59,45.5,59,46.2z"/>
			<path class="st3" d="M62.4,52.3c-0.8,0-1.6,0-2.3,0c-0.9,0-1.4-0.6-1.4-1.4c0-0.9,0.5-1.3,1.4-1.3c1.6,0,3.3,0,4.9,0
				c0.8,0,1.4,0.5,1.4,1.3c0,0.8-0.5,1.4-1.4,1.4C64,52.4,63.2,52.3,62.4,52.3z"/>
			<path class="st3" d="M52.7,52.3c-0.7,0-1.5,0-2.2,0c-0.9,0-1.4-0.6-1.4-1.4c0-0.9,0.5-1.3,1.4-1.3c1.6,0,3.1,0,4.7,0
				c0.8,0,1.4,0.5,1.4,1.3c0,0.8-0.5,1.4-1.4,1.4C54.2,52.4,53.5,52.3,52.7,52.3z"/>
			<path class="st3" d="M59,55.9c0,0.8,0,1.6,0,2.3c0,0.8-0.6,1.3-1.4,1.3c-0.8,0-1.3-0.5-1.3-1.3c0-1.6,0-3.1,0-4.7
				c0-0.8,0.5-1.3,1.3-1.4c0.8,0,1.4,0.5,1.4,1.4C59,54.3,59,55.1,59,55.9z"/>
		</g>
	</g>
</g>
<g id="Layer_2">
	<g>
		<defs>
			<rect id="SVGID_3_" y="0" width="100" height="100"/>
		</defs>
		<clipPath id="SVGID_4_">
			<use xlink:href="#SVGID_3_"  style="overflow:visible;"/>
		</clipPath>
		<g class="st4">
			<path class="st5" d="M85,26.3c0,4,0.1,8.5-0.2,13c-0.3,4.4-0.9,8.8-1.8,13.1c-0.2,0.8,0,1.3,0.7,1.8c7.9,5.5,11.8,13.1,11.2,22.7
				c-0.7,11.9-10.3,21.7-22,23c-6.1,0.7-11.7-0.7-16.8-4.1c-0.6-0.4-0.9-0.3-1.5,0c-2.6,1.6-5.4,2.9-8.4,3.9c-0.9,0.3-1.7,0.3-2.6,0
				c-5.9-2.1-11.1-5.4-15.8-9.4C17.3,81.1,11,69.3,7.7,55.8C5.9,48.4,5.1,40.9,5,33.2c0-6,0-12,0-18c0-1.4,0.3-1.7,1.6-2.2
				C19.1,8.7,31.5,4.5,44,0.2c0.7-0.2,1.3-0.2,2,0C58.5,4.5,71,8.7,83.5,13c1.3,0.4,1.6,0.8,1.6,2.2C85,18.8,85,22.3,85,26.3z
				 M8.3,27.8c0,1.2,0,2.4,0,3.6c0.1,8.7,0.9,17.2,3.1,25.6c3.2,11.8,8.7,22.2,18,30.3c4.2,3.8,9,6.7,14.3,8.7
				c0.6,0.2,1.2,0.5,1.9,0.2c2.2-0.8,4.3-1.8,6.3-2.9c0.6-0.3,0.7-0.5,0.2-1.1c-1.6-1.5-2.9-3.3-3.9-5.2c-0.4-0.7-0.7-0.8-1.3-0.4
				c-1.2,0.9-2.4,0.8-3.8,0c-6.1-3.3-11-7.7-15-13.3c-7.5-10.5-10.4-22.4-11.3-35c-0.4-5-0.2-9.9-0.2-14.9c0-1.5,0.2-1.9,1.7-2.3
				c8.2-2.8,16.5-5.6,24.7-8.5c1.4-0.5,2.7-0.5,4.1,0c8.2,2.9,16.4,5.6,24.6,8.4c1.5,0.5,1.7,0.9,1.7,2.4c0,2.5,0,5,0,7.5
				c0.1,6.1-0.5,12.1-1.6,18c-0.1,0.7,0.1,0.9,0.7,0.9c2.3,0.2,4.5,0.7,6.7,1.5c0.5,0.2,0.7,0.1,0.7-0.4c0.8-4.5,1.4-9.1,1.7-13.7
				c0.4-6.8,0.1-13.7,0.2-20.5c0-0.8-0.2-1.1-1-1.4c-11.7-4-23.3-8-35-12c-0.5-0.2-0.9-0.2-1.4,0c-11.7,4-23.5,8-35.2,12
				c-0.6,0.2-0.8,0.5-0.8,1.2C8.3,20.5,8.3,24.1,8.3,27.8z M20,31.7c0.1,5.6,0.4,11.1,1.5,16.6c1.6,8.6,4.5,16.7,9.8,23.8
				c3.5,4.8,7.8,8.7,13.1,11.6c0.7,0.4,1.2,0.1,1.7-0.2c0.6-0.4,0.2-0.8,0.1-1.2c-1.3-4.5-1.5-8.9-0.3-13.4
				c2.7-10.2,11-17.4,21.5-18.6c0.6-0.1,1-0.2,1.1-0.9c0.3-2.3,0.8-4.5,1-6.8c0.7-5.8,0.7-11.6,0.7-17.4c0-0.6-0.1-0.9-0.8-1.1
				c-7.9-2.7-15.7-5.4-23.6-8.1c-0.4-0.2-0.8-0.2-1.3,0c-7.9,2.7-15.8,5.4-23.7,8.1c-0.6,0.2-0.7,0.5-0.7,1C20,27.3,20,29.5,20,31.7
				z M70,96.7c11.7,0.1,21.6-9.6,21.7-21.4c0.1-11.9-9.6-21.8-21.3-21.9c-12.1-0.1-21.9,9.5-22,21.7C48.3,86.8,58,96.6,70,96.7z"/>
			<path class="st5" d="M60,40c0,8.4-6.7,15-15.1,15C36.6,55,30,48.2,30,39.8C30,31.6,36.8,25,45.2,25C53.3,25,60,31.8,60,40z
				 M33.3,40c0,6.3,5.2,11.6,11.6,11.7c6.4,0.1,11.7-5.2,11.8-11.7c0-6.3-5.3-11.7-11.7-11.7C38.6,28.3,33.4,33.6,33.3,40z"/>
			<path class="st5" d="M69.9,80.5c-0.5,1.6-1.1,3.1-1.5,4.7c-0.5,1.7-1.6,2.9-3.2,3.1c-1.7,0.2-3.1-0.6-3.9-2.2
				c-1.7-3.4-3.4-6.8-5.1-10.2c-1.2-2.5-1.4-5.1-0.9-7.7c0.8-3.8,4.1-6.5,8.1-6.5c0.9,0,1.9,0,2.8,0c1.4-0.1,2.5,0.4,3.5,1.3
				c0.3,0.4,0.5,0.4,0.9,0c1-1,2.2-1.4,3.6-1.3c1.5,0.1,3-0.1,4.5,0.2c3.8,0.8,6.4,4.2,6.5,8c0.1,2.6-0.5,5-1.7,7.3
				C81.9,80,80.4,83,79,85.9c-0.9,1.8-2.3,2.7-4,2.5c-1.6-0.2-2.7-1.3-3.3-3.3c-0.4-1.5-1-3-1.5-4.5C70.1,80.5,70,80.5,69.9,80.5z
				 M65,65c-0.7,0-1.1,0-1.6,0c-2.6,0.1-4.7,1.9-5,4.6c-0.2,1.6,0,3.2,0.7,4.7c1.6,3.4,3.3,6.8,5,10.2c0.1,0.2,0.2,0.6,0.6,0.5
				c0.4,0,0.3-0.4,0.4-0.6c1.1-3.2,2.2-6.5,3.3-9.7c0.3-0.7,0.8-1.2,1.6-1.2c0.8,0,1.4,0.5,1.6,1.2c1.1,3.2,2.2,6.4,3.3,9.6
				c0.1,0.3,0,0.7,0.4,0.7c0.4,0,0.5-0.4,0.6-0.6c1.6-3.2,3.2-6.4,4.8-9.6c0.8-1.5,1-3.2,0.9-4.9c-0.1-2.4-1.7-4.2-4.1-4.7
				c-1-0.2-2,0-3-0.1c-1.2-0.1-1.9,0.4-2.5,1.3c-0.2,0.3-0.4,0.7-0.5,1c-0.3,0.6-0.8,1-1.6,1c-0.7,0-1.3-0.4-1.5-1
				C67.7,65.7,66.7,64.5,65,65z"/>
			<path class="st5" d="M49.8,41.6c-0.9,0.1-2.4-0.5-3,0.2c-0.5,0.6-0.2,2-0.2,3.1c0,0.9,0,1.7,0,2.6c-0.1,1.4-1.2,0.6-1.7,0.7
				c-0.5,0-1.6,0.7-1.6-0.7c0-1.7,0-3.5,0-5.2c0-0.6-0.2-0.8-0.8-0.8c-1.7,0-3.5,0-5.2,0c-0.5,0-0.7-0.1-0.7-0.7
				c-0.1-2.7-0.1-2.7,2.5-2.7c1.1,0,2.3,0,3.4,0c0.6,0,0.8-0.2,0.8-0.8c0-1.7,0-3.4,0-5.1c0-0.6,0.1-0.8,0.8-0.8
				c2.6,0,2.6-0.1,2.6,2.5c0,1.1,0,2.3,0,3.4c0,0.6,0.2,0.8,0.8,0.8c1.7,0,3.4,0,5.1,0c0.6,0,0.8,0.1,0.8,0.8c0,2.6,0.1,2.6-2.5,2.6
				C50.6,41.6,50.3,41.6,49.8,41.6z"/>
		</g>
	</g>
</g>
</svg>
